<svg xmlns="http://www.w3.org/2000/svg" viewBox="0 0 1010 1010" width="1010" height="1010">
  <rect x="0" y="0" width="1010" height="1010" fill="#000000"/>
  <path d="M 184.0,685.5 L 68.5,685.0 L 254.5,363.0 L 269.0,345.5 L 280.0,337.5 L 294.0,330.5 L 314.0,325.5 L 336.0,325.5 L 354.0,329.5 L 370.0,336.5 L 442.0,389.5 L 504.0,440.5 L 531.0,417.5 L 575.0,384.5 L 615.0,357.5 L 651.0,336.5 L 662.0,331.5 L 681.0,326.5 L 693.0,325.5 L 710.0,327.5 L 734.0,337.5 L 751.5,353.0 L 798.5,431.0 L 798.0,432.5 L 787.0,426.5 L 765.0,420.5 L 718.0,420.5 L 663.0,433.5 L 609.0,453.5 L 539.0,486.5 L 455.0,534.5 L 360.0,597.5 L 300.0,642.5 L 317.5,621.0 L 390.5,545.0 L 345.0,501.5 L 339.0,497.5 L 331.0,497.5 L 322.5,505.0 L 234.5,657.0 L 213.0,675.5 L 203.0,680.5 Z M 941.0,685.5 L 821.0,685.5 L 805.0,681.5 L 788.0,672.5 L 774.5,660.0 L 764.5,646.0 L 681.5,501.0 L 677.5,498.0 L 681.0,491.5 L 538.5,650.0 L 516.0,671.5 L 499.0,680.5 L 478.0,685.5 L 368.5,685.0 L 431.0,627.5 L 501.0,569.5 L 567.0,520.5 L 614.0,489.5 L 661.0,462.5 L 703.0,443.5 L 742.0,432.5 L 772.0,430.5 L 791.0,433.5 L 801.0,437.5 L 804.5,441.0 L 937.5,676.0 Z" fill="#FFFFFF" fill-rule="evenodd"/>
</svg>